<?xml version="1.0" standalone="no"?>
<!DOCTYPE svg PUBLIC "-//W3C//DTD SVG 1.1//EN" "http://www.w3.org/Graphics/SVG/1.1/DTD/svg11.dtd" >
<svg xmlns="http://www.w3.org/2000/svg" xmlns:xlink="http://www.w3.org/1999/xlink" version="1.1">
<metadata></metadata>
<defs>
<font id="raisonnedemibold" horiz-adv-x="608" >
<font-face units-per-em="1024" ascent="819" descent="-205" />
<missing-glyph horiz-adv-x="288" />
<glyph unicode="&#xd;" horiz-adv-x="0" />
<glyph unicode=" "  horiz-adv-x="288" />
<glyph unicode="&#x09;" horiz-adv-x="288" />
<glyph unicode="&#xa0;" horiz-adv-x="288" />
<glyph unicode="!" horiz-adv-x="303" d="M205 729v-536h-115v524zM223 71q0 -32 -22 -54.5t-54 -22.5q-31 0 -53 22.5t-22 54.5t22 54t53 22t53.5 -22.5t22.5 -53.5z" />
<glyph unicode="&#x22;" horiz-adv-x="428" d="M78 499v218l108 12v-230h-108zM242 499v218l108 12v-230h-108z" />
<glyph unicode="#" horiz-adv-x="841" d="M472 0v205h-102v-205h-103v205h-205v102h205v103h-205v102h205v205l103 12v-217h102v205l102 12v-217h205v-102h-205v-103h205v-102h-205v-205h-102zM370 410v-103h102v103h-102z" />
<glyph unicode="$" horiz-adv-x="550" d="M193 539q0 -19 6.5 -33t24.5 -24.5t32 -16.5t47 -17t52 -18q147 -56 147 -203q0 -85 -49.5 -147t-127.5 -80v-102h-103v101q-80 17 -130.5 79.5t-50.5 145.5h115q0 -52 31 -87t84 -35q54 0 85 33.5t31 88.5q0 31 -9.5 52.5t-31 35t-40.5 21.5t-55.5 19t-57.5 19 q-52 20 -82.5 62t-30.5 99q0 69 38 119.5t99 65.5v102h102v-102q77 -16 119 -86l-77 -77q-12 29 -36.5 44.5t-53.5 15.5q-35 0 -56.5 -21t-21.5 -54z" />
<glyph unicode="%" horiz-adv-x="974" d="M254 -62l374 881l93 -40l-374 -881zM49 538q0 80 52 132.5t133 52.5t133.5 -52.5t52.5 -132.5t-52.5 -133t-133.5 -53t-133 53t-52 133zM152 538q0 -38 23 -61.5t59 -23.5t59.5 23.5t23.5 61.5t-23.5 61.5t-59.5 23.5t-59 -23.5t-23 -61.5zM555 179q0 80 52 133t133 53 t133.5 -53t52.5 -133t-52.5 -132.5t-133.5 -52.5t-133 52.5t-52 132.5zM657 179q0 -38 23.5 -61.5t59.5 -23.5t59.5 23.5t23.5 61.5t-23.5 61.5t-59.5 23.5t-59.5 -23.5t-23.5 -61.5z" />
<glyph unicode="&#x26;" horiz-adv-x="735" d="M509 224q0 -101 -68.5 -165.5t-166.5 -64.5q-97 0 -164.5 67t-67.5 163q0 58 29.5 107.5t76.5 78.5q-64 54 -64 131q0 78 53.5 130t136.5 52q55 0 101 -30.5t70 -76.5l-75 -67q-38 65 -96 65q-37 0 -58 -22t-21 -57q0 -34 22.5 -57t56.5 -23h39v-109h-39 q-52 0 -84.5 -33.5t-32.5 -88.5q0 -52 33 -87t84 -35q53 0 86.5 33.5t33.5 88.5q0 44 -25 75v102h340v-102h-213q13 -39 13 -75z" />
<glyph unicode="'" horiz-adv-x="264" d="M78 499v218l108 12v-230h-108z" />
<glyph unicode="(" horiz-adv-x="460" d="M177 358q0 -139 71 -248t190 -166l-54 -98q-144 69 -233 207t-89 305t89 305t233 207l54 -97q-119 -58 -190 -167t-71 -248z" />
<glyph unicode=")" horiz-adv-x="460" d="M284 358q0 139 -71 248t-190 167l54 97q144 -69 232.5 -207t88.5 -305t-88.5 -305t-232.5 -207l-54 98q119 57 190 166t71 248z" />
<glyph unicode="*" horiz-adv-x="399" d="M316 456l-82 46v-92h-69v92l-82 -46l-34 61l80 46l-80 46l34 62l82 -47v93l69 6v-99l82 47l34 -62l-80 -46l80 -46z" />
<glyph unicode="+" horiz-adv-x="586" d="M58 307v103h179v182h110v-182h178v-103h-178v-182h-110v182h-179z" />
<glyph unicode="," horiz-adv-x="282" d="M90 -164l-94 54l129 219h123z" />
<glyph unicode="-" horiz-adv-x="471" d="M58 287v102h352v-102h-352z" />
<glyph unicode="." horiz-adv-x="299" d="M74 71q0 31 22 53.5t54 22.5q31 0 53 -22t22 -54t-22 -54.5t-53 -22.5t-53.5 22.5t-22.5 54.5z" />
<glyph unicode="/" horiz-adv-x="485" d="M10 -62l374 881l93 -40l-374 -881z" />
<glyph unicode="0" horiz-adv-x="827" d="M59 358q0 152 102.5 258.5t252.5 106.5t252 -106.5t102 -258.5t-102 -258t-252 -106t-252.5 106t-102.5 258zM176 358q0 -76 33 -132l341 341q-62 47 -136 47q-101 0 -169.5 -75t-68.5 -181zM651 358q0 74 -33 132l-342 -342q62 -46 138 -46q101 0 169 75t68 181z" />
<glyph unicode="1" horiz-adv-x="274" d="M80 0v717l115 12v-729h-115z" />
<glyph unicode="2" horiz-adv-x="600" d="M67 0v133q0 163 158 225q13 5 49.5 17t53 20t40 23.5t33.5 37t10 50.5q0 50 -29.5 79t-83.5 29q-95 0 -134 -102l-80 75q28 61 84 98.5t127 37.5q108 0 169 -59.5t61 -156.5q0 -164 -179 -224q-33 -11 -48 -16.5t-42.5 -19.5t-40 -28t-23.5 -38t-11 -53v-19h344v-109 h-458z" />
<glyph unicode="3" horiz-adv-x="574" d="M188 547l-76 68q25 46 71 77t100 31q87 0 138 -48t51 -131q0 -78 -60 -133q104 -65 104 -187q0 -105 -66 -167.5t-167 -62.5q-100 0 -165.5 66.5t-65.5 163.5h111q0 -52 32.5 -87t87.5 -35t86.5 33t31.5 89q0 57 -30 89.5t-83 32.5h-51v109h39q38 0 61.5 22t23.5 61 q0 35 -21.5 55.5t-56.5 20.5q-63 0 -95 -67z" />
<glyph unicode="4" horiz-adv-x="620" d="M60 717l115 12v-368h173v266h115v-266h96v-108h-96v-253h-115v253h-288v464z" />
<glyph unicode="5" horiz-adv-x="565" d="M60 224h115q0 -54 33.5 -88t84.5 -34q52 0 83 33t31 89q0 55 -29.5 88.5t-82.5 33.5q-46 0 -79 -31h-111v402h373v-109h-262v-179q45 26 95 26q91 0 150.5 -62.5t59.5 -168.5q0 -100 -65.5 -165t-162.5 -65q-102 0 -167.5 67t-65.5 163z" />
<glyph unicode="6" horiz-adv-x="564" d="M58 224q0 53 34 121l197 372h117l-144 -271q19 7 41 7q92 0 154 -61.5t62 -167.5q0 -101 -65 -165.5t-165 -64.5t-165.5 64.5t-65.5 165.5zM173 224q0 -54 32.5 -88t83.5 -34t83 34t32 88t-32 87t-83 33t-83.5 -33t-32.5 -87z" />
<glyph unicode="7" horiz-adv-x="522" d="M145 307v103h125l106 198h-340v109h466v-96l-111 -211h64v-103h-118l-161 -307h-122l162 307h-71z" />
<glyph unicode="8" horiz-adv-x="600" d="M111 535q0 80 53 134t136 54t136 -54t53 -134q0 -76 -56 -127q99 -67 99 -184q0 -98 -66 -164t-166 -66t-166 66t-66 164q0 117 99 184q-56 51 -56 127zM182 224q0 -55 32.5 -88.5t85.5 -33.5t85.5 33.5t32.5 88.5t-32.5 88.5t-85.5 33.5t-85.5 -33.5t-32.5 -88.5z M221 535q0 -35 22 -57.5t57 -22.5t57 22.5t22 57.5t-22 57t-57 22t-57 -22t-22 -57z" />
<glyph unicode="9" horiz-adv-x="591" d="M512 729v-729h-115v309q-44 -47 -126 -47q-100 0 -163 65t-63 166t63 165.5t163 64.5q81 0 126 -48v42zM397 493q0 54 -33.5 88.5t-85.5 34.5t-85 -34.5t-33 -88.5t33 -89t85 -35t85.5 35t33.5 89z" />
<glyph unicode=":" horiz-adv-x="299" d="M74 71q0 31 22 53.5t54 22.5q31 0 53 -22t22 -54t-22 -54.5t-53 -22.5t-53.5 22.5t-22.5 54.5zM74 358q0 32 22.5 54.5t53.5 22.5t53 -22.5t22 -54.5t-22 -54t-53 -22q-32 0 -54 22t-22 54z" />
<glyph unicode=";" horiz-adv-x="299" d="M115 358q0 32 22 54.5t53 22.5t53.5 -22.5t22.5 -54.5t-22 -54t-54 -22q-31 0 -53 22t-22 54zM90 -164l-94 54l129 219h123z" />
<glyph unicode="&#x3c;" horiz-adv-x="403" d="M346 199l-73 -72l-231 231l231 232l73 -72l-162 -160z" />
<glyph unicode="=" horiz-adv-x="585" d="M58 369v102h466v-102h-466zM58 205v102h466v-102h-466z" />
<glyph unicode="&#x3e;" horiz-adv-x="403" d="M130 127l-73 72l162 159l-162 160l73 72l231 -232z" />
<glyph unicode="?" horiz-adv-x="523" d="M289 71q0 -32 -22.5 -54.5t-53.5 -22.5t-53.5 22.5t-22.5 54.5q0 31 22.5 53.5t53.5 22.5t53.5 -22.5t22.5 -53.5zM270 193h-114q0 74 32.5 116t87.5 73q52 29 72 54t20 69q0 50 -31.5 79.5t-84.5 29.5q-91 0 -131 -102l-82 79q30 62 85 97t129 35q103 0 165.5 -61 t62.5 -154q0 -70 -24.5 -111.5t-71.5 -71.5q-11 -7 -36 -21t-34 -21t-22.5 -20.5t-18 -30t-4.5 -39.5z" />
<glyph unicode="@" horiz-adv-x="772" d="M537 512v-150q0 -61 43 -61q47 0 47 88q0 102 -60 168t-177 66q-106 0 -175.5 -78t-69.5 -187q0 -118 70 -191t185 -73q100 0 155 56h130q-85 -156 -289 -156q-156 0 -256.5 103.5t-100.5 260.5q0 151 99.5 258t251.5 107q156 0 249.5 -93t93.5 -234q0 -91 -43 -143 t-108 -52q-66 0 -101 51q-22 -26 -46 -38.5t-62 -12.5q-65 0 -110.5 45t-45.5 112q0 68 42.5 112.5t105.5 44.5q21 0 39.5 -6.5t25.5 -12.5l8 -6v22h99zM438 357q0 26 -17.5 44t-42.5 18t-42 -18t-17 -44t17 -43.5t42 -17.5q26 0 43 17.5t17 43.5z" />
<glyph unicode="A" horiz-adv-x="665" d="M655 0h-119l-43 118h-320l-43 -118h-120l265 717h115zM333 563l-122 -337h244z" />
<glyph unicode="B" horiz-adv-x="603" d="M510 531q0 -40 -19.5 -73.5t-47.5 -48.5q45 -23 78 -72t33 -110q0 -97 -66.5 -162t-162.5 -65h-239v717h233q88 0 139.5 -51t51.5 -135zM201 346v-237h118q56 0 88 32t32 86t-32 86.5t-88 32.5h-118zM201 608v-153h118q37 0 57.5 20.5t20.5 55.5t-20.5 56t-57.5 21h-118z " />
<glyph unicode="C" horiz-adv-x="798" d="M164 358q0 -109 67 -182.5t170 -73.5q104 0 171 72.5t67 183.5h117q0 -153 -102 -258.5t-253 -105.5t-252.5 105.5t-101.5 258.5t101.5 259t252.5 106q165 0 273 -131l-80 -80q-71 102 -193 102q-103 0 -170 -73.5t-67 -182.5z" />
<glyph unicode="D" horiz-adv-x="696" d="M86 717h210q156 0 254.5 -97.5t98.5 -261.5q0 -163 -98.5 -260.5t-254.5 -97.5h-210v717zM299 608h-98v-499h98q101 0 167 66t66 183t-66 183.5t-167 66.5z" />
<glyph unicode="E" horiz-adv-x="594" d="M86 0v717h450v-109h-335v-192h163v-109h-163v-198h341v-109h-456z" />
<glyph unicode="F" horiz-adv-x="586" d="M86 0v717h456v-109h-341v-192h175v-109h-175v-307h-115z" />
<glyph unicode="G" horiz-adv-x="799" d="M634 0v97q-82 -103 -233 -103t-252.5 105.5t-101.5 258.5t101.5 259t252.5 106q165 0 273 -131l-80 -80q-71 102 -193 102q-103 0 -170 -73.5t-67 -182.5t67 -182.5t170 -73.5q93 0 154.5 55.5t78.5 149.5h-237v109h343v-416h-106z" />
<glyph unicode="H" horiz-adv-x="644" d="M86 717h115v-301h242v301h115v-717h-115v307h-242v-307h-115v717z" />
<glyph unicode="I" horiz-adv-x="432" d="M382 717v-109h-109v-499h109v-109h-332v109h109v499h-109v109h332z" />
<glyph unicode="J" horiz-adv-x="552" d="M294 717h192v-474q0 -110 -61.5 -179.5t-168.5 -69.5q-99 0 -164.5 66t-65.5 164h114q0 -52 32 -87t84 -35q57 0 86.5 36t29.5 102v368h-78v109z" />
<glyph unicode="K" horiz-adv-x="606" d="M201 717v-250l174 250h135l-172 -242l260 -475h-134l-201 370l-62 -87v-283h-115v717h115z" />
<glyph unicode="L" horiz-adv-x="557" d="M86 0v717h115v-608h341v-109h-456z" />
<glyph unicode="M" horiz-adv-x="880" d="M86 0v717h127l227 -553l228 553h127v-717h-115v455l-188 -455h-103l-188 455v-455h-115z" />
<glyph unicode="N" horiz-adv-x="644" d="M86 0v717h127l230 -494v494h115v-717h-127l-230 494v-494h-115z" />
<glyph unicode="O" horiz-adv-x="802" d="M756 358q0 -153 -102 -258.5t-253 -105.5t-252.5 105.5t-101.5 258.5t101.5 259t252.5 106t253 -106t102 -259zM639 358q0 108 -67.5 182t-170.5 74t-170 -73.5t-67 -182.5t67 -182.5t170 -73.5t170.5 74t67.5 182z" />
<glyph unicode="P" horiz-adv-x="582" d="M86 0v717h239q99 0 163 -63.5t64 -164.5t-64 -164t-163 -63h-124v-262h-115zM201 608v-237h124q54 0 85 32t31 86t-31 86.5t-85 32.5h-124z" />
<glyph unicode="Q" horiz-adv-x="802" d="M645 -12l-59 58q-83 -52 -185 -52q-151 0 -252.5 105.5t-101.5 258.5t101.5 259t252.5 106t253 -106t102 -259q0 -136 -86 -240l52 -53zM164 358q0 -109 67 -182.5t170 -73.5q56 0 105 25l-105 103l77 77l111 -109q50 68 50 160q0 108 -67.5 182t-170.5 74t-170 -73.5 t-67 -182.5z" />
<glyph unicode="R" horiz-adv-x="538" d="M86 717h210q89 0 147.5 -55t58.5 -150q0 -82 -46.5 -134.5t-116.5 -66.5l163 -311h-131l-154 307h-16v-307h-115v717zM201 608v-192h96q44 0 68 26.5t24 69.5t-24 69.5t-68 26.5h-96z" />
<glyph unicode="S" horiz-adv-x="550" d="M193 539q0 -19 6.5 -33t24.5 -24.5t32 -16.5t47 -17t52 -18q147 -56 147 -203q0 -99 -67 -166t-164 -67q-98 0 -164 67t-66 163h115q0 -52 31 -87t84 -35q54 0 85 33.5t31 88.5q0 31 -9.5 52.5t-31 35t-40.5 21.5t-55.5 19t-57.5 19q-52 20 -82.5 62t-30.5 99 q0 83 54 137t134 54q115 0 170 -92l-77 -77q-12 29 -36.5 44.5t-53.5 15.5q-35 0 -56.5 -21t-21.5 -54z" />
<glyph unicode="T" horiz-adv-x="473" d="M16 608v109h441v-109h-163v-608h-115v608h-163z" />
<glyph unicode="U" horiz-adv-x="600" d="M419 717h115v-487q0 -104 -66.5 -170t-167.5 -66t-167 66t-66 170v487h114v-493q0 -55 32.5 -88.5t86.5 -33.5t86.5 33.5t32.5 88.5v493z" />
<glyph unicode="V" horiz-adv-x="663" d="M274 0l-266 717h121l203 -560l203 560h120l-266 -717h-115z" />
<glyph unicode="W" horiz-adv-x="921" d="M273 717h115l73 -218l73 218h114l-131 -381l63 -182l202 563h121l-266 -717h-115l-61 177l-62 -177h-114l-267 717h121l203 -563l62 182z" />
<glyph unicode="X" horiz-adv-x="614" d="M247 438l-151 279h129l82 -161l82 161h129l-150 -279l237 -438h-129l-169 322l-169 -322h-129z" />
<glyph unicode="Y" horiz-adv-x="516" d="M5 717h121l132 -293l132 293h121l-196 -410v-307h-114v307z" />
<glyph unicode="Z" horiz-adv-x="637" d="M129 307v103h133l145 198h-331v109h472v-96l-153 -211h56v-103h-130l-144 -198h417v-109h-558v96l152 211h-59z" />
<glyph unicode="[" horiz-adv-x="326" d="M188 723v-729h109v-96h-211v921h211v-96h-109z" />
<glyph unicode="\" horiz-adv-x="485" d="M101 819l374 -881l-93 -40l-374 881z" />
<glyph unicode="]" horiz-adv-x="326" d="M138 -6v729h-108v96h211v-921h-211v96h108z" />
<glyph unicode="^" d="M89 410l-72 72l287 286l287 -286l-72 -72l-215 216z" />
<glyph unicode="_" horiz-adv-x="612" d="M26 -109v103h561v-103h-561z" />
<glyph unicode="`" horiz-adv-x="342" d="M300 677l-28 -99l-246 66l27 99z" />
<glyph unicode="a" horiz-adv-x="638" d="M445 512h115v-512h-115v53q-18 -23 -58 -41t-88 -18q-110 0 -183.5 73.5t-73.5 188.5t73.5 188.5t183.5 73.5q48 0 88 -18t58 -41v53zM450 256q0 64 -42.5 109t-104.5 45q-63 0 -106.5 -45t-43.5 -109t43.5 -109t106.5 -45q62 0 104.5 45t42.5 109z" />
<glyph unicode="b" horiz-adv-x="637" d="M191 0h-112v717l112 12v-270q54 59 151 59q115 0 184.5 -71t69.5 -191t-69.5 -191t-184.5 -71q-90 0 -151 59v-53zM189 256q0 -67 41 -110.5t107 -43.5t107 43.5t41 110.5t-41 110.5t-107 43.5t-107 -43.5t-41 -110.5z" />
<glyph unicode="c" horiz-adv-x="605" d="M157 256q0 -69 40.5 -112.5t106.5 -43.5q65 0 107 43.5t42 112.5h112q0 -112 -75 -187t-186 -75q-113 0 -187.5 74.5t-74.5 187.5t74.5 187.5t187.5 74.5q112 0 188 -78l-83 -74q-43 46 -105 46q-66 0 -106.5 -43.5t-40.5 -112.5z" />
<glyph unicode="d" horiz-adv-x="637" d="M559 0h-113v53q-61 -59 -150 -59q-115 0 -184.5 71t-69.5 191t69.5 191t184.5 71q96 0 150 -59v258l113 12v-729zM449 256q0 67 -41 110.5t-107 43.5t-107 -43.5t-41 -110.5t41 -110.5t107 -43.5t107 43.5t41 110.5z" />
<glyph unicode="e" horiz-adv-x="605" d="M559 217h-398q9 -50 49.5 -83.5t94.5 -33.5q83 0 116 50h134q-26 -70 -94.5 -113t-155.5 -43q-111 0 -187 76.5t-76 185.5t75.5 185.5t184.5 76.5t184.5 -76.5t75.5 -185.5q0 -21 -3 -39zM302 414q-48 0 -86 -28t-50 -69h272q-12 41 -50 69t-86 28z" />
<glyph unicode="f" horiz-adv-x="423" d="M139 512v78q0 66 40 99.5t99 33.5q72 0 110 -47l-76 -75q-9 15 -29 15q-14 0 -22.5 -9t-8.5 -24v-71h164v-106h-164v-406h-113v406h-103v106h103z" />
<glyph unicode="g" horiz-adv-x="548" d="M57 310q0 88 58 148t148 60q63 0 105 -30v24h112v-202q0 -93 -68 -149q46 -32 71.5 -81t25.5 -106q0 -105 -68.5 -170.5t-171.5 -65.5q-94 0 -158 53.5t-79 141.5h116q27 -89 121 -89q57 0 91 36t34 94t-34 93.5t-91 35.5q-36 0 -66 -18.5t-45 -48.5l-82 81q22 29 50 44 q-69 60 -69 149zM170 310q0 -45 28 -72.5t71 -27.5t71 28t28 72q0 45 -28 73.5t-71 28.5t-71 -28.5t-28 -73.5z" />
<glyph unicode="h" horiz-adv-x="604" d="M79 0v717l112 12v-275q54 64 147 64q92 0 144.5 -55t52.5 -156v-307h-113v283q0 129 -112 129q-54 0 -86.5 -36t-32.5 -93v-283h-112z" />
<glyph unicode="i" horiz-adv-x="270" d="M79 0v512h112v-512h-112zM59 646q0 32 22 54.5t54 22.5t54 -22.5t22 -54.5t-22 -54.5t-54 -22.5t-54 22.5t-22 54.5z" />
<glyph unicode="j" horiz-adv-x="270" d="M79 -268v780h112v-768zM59 646q0 32 22 54.5t54 22.5t54 -22.5t22 -54.5t-22 -54.5t-54 -22.5t-54 22.5t-22 54.5z" />
<glyph unicode="k" horiz-adv-x="549" d="M191 339l117 173h129l-107 -154l213 -358h-128l-155 261l-69 -99v-162h-112v717l112 12v-390z" />
<glyph unicode="l" horiz-adv-x="270" d="M79 0v717l112 12v-729h-112z" />
<glyph unicode="m" horiz-adv-x="850" d="M79 0v512h112v-58q21 29 57 46.5t77 17.5q90 0 134 -71q33 35 68 53t86 18q80 0 124 -45t44 -137v-336h-112v307q0 105 -91 105q-40 0 -66 -28t-26 -77v-307h-112v307q0 50 -23.5 77.5t-67.5 27.5q-40 0 -66 -28t-26 -77v-307h-112z" />
<glyph unicode="n" horiz-adv-x="598" d="M79 0v512h112v-58q50 64 141 64q95 0 145.5 -54.5t50.5 -156.5v-307h-112v283q0 129 -112 129q-54 0 -83.5 -35t-29.5 -94v-283h-112z" />
<glyph unicode="o" d="M42 256q0 113 74 187.5t188 74.5t188 -74.5t74 -187.5t-74 -187.5t-188 -74.5t-188 74.5t-74 187.5zM157 256q0 -67 41 -110.5t106 -43.5q66 0 107 43.5t41 110.5t-41 110.5t-107 43.5q-65 0 -106 -43.5t-41 -110.5z" />
<glyph unicode="p" horiz-adv-x="637" d="M79 512h112v-53q61 59 151 59q115 0 184.5 -71t69.5 -191t-69.5 -191t-184.5 -71q-97 0 -151 59v-309l-112 -12v780zM189 256q0 -67 41 -110.5t107 -43.5t107 43.5t41 110.5t-41 110.5t-107 43.5t-107 -43.5t-41 -110.5z" />
<glyph unicode="q" horiz-adv-x="637" d="M446 512h113v-768l-113 -12v321q-54 -59 -150 -59q-115 0 -184.5 71t-69.5 191t69.5 191t184.5 71q89 0 150 -59v53zM449 256q0 67 -41 110.5t-107 43.5t-107 -43.5t-41 -110.5t41 -110.5t107 -43.5t107 43.5t41 110.5z" />
<glyph unicode="r" horiz-adv-x="353" d="M79 0v512h112v-53q45 59 133 59v-108h-11q-54 0 -88 -35t-34 -92v-283h-112z" />
<glyph unicode="s" horiz-adv-x="431" d="M39 169h107q0 -31 20.5 -50t47.5 -19q30 0 48 17t18 47q0 14 -5 24.5t-9.5 17t-18 13t-19 8t-25.5 7t-24 6.5q-44 12 -75 46t-31 91q0 61 41 101t100 40q77 0 122 -65l-70 -69q-14 34 -45 34q-19 0 -30 -12.5t-11 -28.5t11 -26.5t24 -15t38.5 -11.5t39.5 -12 q99 -36 99 -146q0 -76 -50 -124t-128 -48q-77 0 -126 50.5t-49 124.5z" />
<glyph unicode="t" horiz-adv-x="420" d="M123 512v205l113 12v-217h153v-106h-153v-406h-113v406h-104v106h104z" />
<glyph unicode="u" horiz-adv-x="598" d="M519 512v-512h-112v58q-50 -64 -141 -64q-95 0 -145.5 54.5t-50.5 156.5v307h112v-283q0 -129 112 -129q54 0 83.5 35t29.5 94v283h112z" />
<glyph unicode="v" horiz-adv-x="497" d="M5 512h121l123 -352l123 352h121l-189 -512h-110z" />
<glyph unicode="w" horiz-adv-x="755" d="M233 512h111l34 -106l34 106h110l-89 -237l44 -131l135 368h115l-202 -512h-102l-45 134l-45 -134h-103l-201 512h114l136 -368l44 131z" />
<glyph unicode="x" horiz-adv-x="522" d="M384 0l-123 201l-123 -201h-131l192 303l-133 209h131l64 -106l65 106h131l-133 -209l191 -303h-131z" />
<glyph unicode="y" horiz-adv-x="500" d="M6 512h117l127 -298l127 298h117l-188 -422v-346l-112 -12v358z" />
<glyph unicode="z" horiz-adv-x="549" d="M59 406v106h429v-96l-297 -310h316v-106h-466v96l297 310h-279z" />
<glyph unicode="{" horiz-adv-x="327" d="M189 256v-147q0 -49 29 -82t80 -33v-96q-94 0 -152.5 57.5t-58.5 153.5v142q0 59 -55 59v97q55 0 55 59v142q0 97 58 154t153 57v-96q-51 0 -80 -33t-29 -82v-147q0 -38 -11.5 -60.5t-35.5 -42.5q25 -20 36 -42t11 -60z" />
<glyph unicode="|" horiz-adv-x="274" d="M86 -102v921h102v-921h-102z" />
<glyph unicode="}" horiz-adv-x="327" d="M138 109v147q0 38 11 60t36 42q-24 20 -35.5 42.5t-11.5 60.5v147q0 49 -28.5 82t-79.5 33v96q95 0 153 -57t58 -154v-142q0 -59 55 -59v-97q-55 0 -55 -59v-142q0 -96 -58.5 -153.5t-152.5 -57.5v96q51 0 79.5 33t28.5 82z" />
<glyph unicode="~" horiz-adv-x="568" d="M412 416h105q0 -54 -33 -84.5t-90 -30.5q-24 0 -108.5 14.5t-100.5 14.5q-12 0 -20 -6.5t-8 -16.5h-106q0 54 33 84.5t90 30.5q24 0 108.5 -14.5t100.5 -14.5q12 0 20.5 6.5t8.5 16.5z" />
<glyph unicode="&#xa1;" horiz-adv-x="303" d="M98 -256v524h115v-524h-115zM80 390q0 32 22.5 54.5t53.5 22.5t53 -22.5t22 -54.5t-22 -54.5t-53 -22.5t-53.5 22.5t-22.5 54.5z" />
<glyph unicode="&#xa2;" horiz-adv-x="605" d="M157 256q0 -69 40.5 -112.5t106.5 -43.5q65 0 107 43.5t42 112.5h112q0 -98 -59 -169t-151 -88v-101h-102v101q-94 17 -152.5 87.5t-58.5 169.5t58.5 169.5t152.5 87.5v101h102v-101q77 -13 137 -73l-83 -74q-43 46 -105 46q-66 0 -106.5 -43.5t-40.5 -112.5z" />
<glyph unicode="&#xa3;" horiz-adv-x="595" d="M136 410v125q0 79 53.5 133.5t135.5 54.5q115 0 171 -107l-78 -69q-34 67 -93 67q-38 0 -58 -22t-20 -62v-120h161v-103h-161v-137q0 -49 -16 -68h173q56 0 56 56h102q0 -67 -41 -112.5t-110 -45.5h-331v102q25 2 40.5 18t15.5 41v146h-96v103h96z" />
<glyph unicode="&#xa4;" horiz-adv-x="690" d="M557 229l88 -89l-80 -80l-89 90q-54 -37 -131 -37t-131 37l-89 -90l-80 80l88 89q-36 62 -36 131q0 70 36 132l-88 89l80 79l89 -89q56 37 131 37t131 -37l89 89l80 -79l-88 -89q36 -62 36 -132q0 -69 -36 -131zM478 360q0 61 -37 100.5t-96 39.5t-96 -39.5t-37 -100.5 q0 -60 37 -99.5t96 -39.5t96 39.5t37 99.5z" />
<glyph unicode="&#xa5;" horiz-adv-x="499" d="M22 184v103h169v20l-8 21h-161v102h115l-131 287h121l123 -286l123 286h121l-132 -287h116v-102h-162l-8 -21v-20h170v-103h-171v-184h-114v184h-171z" />
<glyph unicode="&#xa6;" horiz-adv-x="274" d="M86 -102v403h102v-403h-102zM188 819v-403h-102v403h102z" />
<glyph unicode="&#xa7;" horiz-adv-x="550" d="M196 539q0 -19 6.5 -33t25 -25t31.5 -16.5t47 -16.5t52 -18q142 -52 142 -203q0 -67 -34 -126q36 -52 36 -124q0 -108 -65 -173.5t-166 -65.5q-99 0 -164.5 69.5t-65.5 166.5h115q0 -54 30.5 -91t84.5 -37t85 34.5t31 93.5q0 31 -9 52.5t-30.5 36t-39 21.5t-55 19 t-57.5 19q-51 19 -82 61.5t-31 99.5q0 78 54 126q-56 51 -56 128q0 82 55 134t135 52q115 0 170 -92l-76 -77q-25 60 -87 60q-35 0 -58.5 -21t-23.5 -54zM196 289q0 -19 6.5 -33t25 -25t31.5 -16.5t47 -16.5t52 -18l19 -8q12 27 12 54q0 47 -23.5 71.5t-69.5 40.5 q-42 14 -60 19q-40 -20 -40 -68z" />
<glyph unicode="&#xa8;" horiz-adv-x="420" d="M16 667q0 32 22 54t54 22t54 -22t22 -54t-22 -54.5t-54 -22.5t-54 22.5t-22 54.5zM253 667q0 32 22 54t54 22t53.5 -22t21.5 -54t-22 -54.5t-53 -22.5q-32 0 -54 22.5t-22 54.5z" />
<glyph unicode="&#xa9;" horiz-adv-x="798" d="M248 358q0 -74 40 -121t113 -47q57 0 100 38.5t52 96.5h77q-11 -87 -76 -146.5t-153 -59.5q-100 0 -165 68.5t-65 170.5t65 171t165 69q107 0 176 -87l-53 -53q-46 68 -123 68q-73 0 -113 -47t-40 -121zM45 358q0 153 101 259t253 106t253.5 -106t101.5 -259 t-101.5 -258.5t-253.5 -105.5t-253 105.5t-101 258.5zM122 358q0 -123 79.5 -207.5t197.5 -84.5q119 0 198.5 84.5t79.5 207.5t-80 208t-198 85t-197.5 -85t-79.5 -208z" />
<glyph unicode="&#xaa;" horiz-adv-x="408" d="M288 717h68v-307h-68v31q-31 -35 -88 -35q-68 0 -111.5 44t-43.5 113t43.5 114.5t111.5 45.5q30 0 53.5 -12t34.5 -26v32zM289 563q0 39 -24.5 66.5t-62.5 27.5q-39 0 -64.5 -28t-25.5 -66t25.5 -65t64.5 -27q38 0 62.5 27t24.5 65zM63 307v60h293v-60h-293z" />
<glyph unicode="&#xab;" horiz-adv-x="620" d="M368 123l-73 -72l-255 256l255 256l73 -71l-185 -185zM589 123l-73 -72l-255 256l255 256l73 -71l-185 -185z" />
<glyph unicode="&#xac;" horiz-adv-x="587" d="M58 205v102h468v-205h-106v103h-362z" />
<glyph unicode="&#xad;" horiz-adv-x="471" d="M58 287v102h352v-102h-352z" />
<glyph unicode="&#xae;" horiz-adv-x="798" d="M45 358q0 153 101 259t253 106t253.5 -106t101.5 -259t-101.5 -258.5t-253.5 -105.5t-253 105.5t-101 258.5zM122 358q0 -123 79.5 -207.5t197.5 -84.5q119 0 198.5 84.5t79.5 207.5t-80 208t-198 85t-197.5 -85t-79.5 -208zM282 583h133q54 0 92 -36t38 -96 q0 -51 -30 -85.5t-74 -43.5l104 -191h-83l-97 187h-7v-187h-76v452zM358 511v-121h51q29 0 44 16.5t15 44.5q0 60 -59 60h-51z" />
<glyph unicode="&#xaf;" horiz-adv-x="406" d="M42 768v102h323v-102h-323z" />
<glyph unicode="&#xb0;" horiz-adv-x="374" d="M59 595q0 54 36.5 91t91.5 37t91.5 -37t36.5 -91t-36.5 -91t-91.5 -37t-91.5 37t-36.5 91zM143 595q0 -19 12.5 -31.5t31.5 -12.5t31.5 12.5t12.5 31.5t-12.5 31.5t-31.5 12.5t-31.5 -12.5t-12.5 -31.5z" />
<glyph unicode="&#xb1;" horiz-adv-x="585" d="M58 334v102h180v182h107v-182h179v-102h-179v-182h-107v182h-180zM58 0v102h466v-102h-466z" />
<glyph unicode="&#xb2;" horiz-adv-x="327" d="M55 410v60q0 76 64 103q8 3 24.5 9t22.5 9t12.5 11t6.5 20q0 13 -9 22.5t-25 9.5q-29 0 -42 -34l-48 46q14 26 39 41.5t55 15.5q43 0 71.5 -29.5t28.5 -67.5q0 -73 -78 -98q-28 -8 -40 -17.5t-12 -28.5v-5h130v-67h-200z" />
<glyph unicode="&#xb3;" horiz-adv-x="332" d="M137 641l-46 45q24 37 74 37q40 0 62.5 -22t22.5 -60q0 -33 -24 -55q43 -24 43 -76q0 -50 -30.5 -78.5t-76.5 -28.5q-49 0 -77 31t-30 78h69q1 -18 12 -29.5t26 -11.5q18 0 28 11.5t10 27.5q0 17 -10.5 28t-27.5 11h-19v63h17q20 0 20 22q0 21 -20 21q-16 0 -23 -14z" />
<glyph unicode="&#xb4;" horiz-adv-x="342" d="M70 578l-28 99l247 66l27 -99z" />
<glyph unicode="&#xb5;" horiz-adv-x="607" d="M79 -268v780h112v-283q0 -129 112 -129q54 0 83.5 35t29.5 94v283h112v-512h-112v58q-50 -64 -141 -64q-45 0 -84 13v-263z" />
<glyph unicode="&#xb6;" horiz-adv-x="703" d="M285 -268v530q-98 0 -165 64.5t-67 162.5t67 163t165 65h358v-109h-78v-864l-114 -12v530h-52v-518zM168 489q0 -53 33.5 -85.5t83.5 -32.5v237q-50 0 -83.5 -33t-33.5 -86zM451 371v237h-52v-237h52z" />
<glyph unicode="&#xb7;" horiz-adv-x="299" d="M74 358q0 32 22.5 54.5t53.5 22.5t53 -22.5t22 -54.5t-22 -54t-53 -22q-32 0 -54 22t-22 54z" />
<glyph unicode="&#xb8;" horiz-adv-x="251" d="M10 -146h84q0 -14 9 -23t23 -9q13 0 22 9.5t9 22.5q0 37 -38 37h-77l64 109h82l-23 -41q33 -7 55 -34t22 -71q0 -47 -34.5 -81.5t-81.5 -34.5t-81.5 34.5t-34.5 81.5z" />
<glyph unicode="&#xb9;" horiz-adv-x="181" d="M51 410v307l70 6v-313h-70z" />
<glyph unicode="&#xba;" horiz-adv-x="405" d="M66 307v60h278v-60h-278zM45 565q0 68 45 113t113 45t112.5 -45t44.5 -113q0 -67 -44.5 -112t-112.5 -45t-113 45t-45 112zM114 565q0 -40 25 -66t64 -26t63.5 26t24.5 66q0 41 -24.5 67t-63.5 26q-40 0 -64.5 -26t-24.5 -67z" />
<glyph unicode="&#xbb;" horiz-adv-x="620" d="M326 51l-73 72l184 184l-184 185l73 71l255 -256zM104 51l-72 72l184 184l-184 185l72 71l255 -256z" />
<glyph unicode="&#xbc;" horiz-adv-x="873" d="M558 307l70 6v-142h56v97h70v-97h30v-68h-30v-103h-70v103h-126v204zM69 43l680 680l49 -49l-680 -680zM193 410v307l69 6v-313h-69z" />
<glyph unicode="&#xbd;" horiz-adv-x="873" d="M69 43l680 680l49 -49l-680 -680zM539 60v-60h199v68h-130v5q0 19 12 28.5t40 17.5q78 25 78 97q0 38 -28.5 67.5t-71.5 29.5q-64 0 -93 -57l47 -46q13 35 42 35q16 0 25.5 -10t9.5 -23q0 -12 -6.5 -19.5t-13.5 -11t-23 -8.5t-24 -9q-63 -27 -63 -104zM193 410v307l69 6 v-313h-69z" />
<glyph unicode="&#xbe;" horiz-adv-x="873" d="M558 307l70 6v-142h56v97h70v-97h30v-68h-30v-103h-70v103h-126v204zM69 43l680 680l49 -49l-680 -680zM206 641l-46 45q24 37 73 37q40 0 62.5 -22t22.5 -60q0 -34 -23 -55q43 -24 43 -76q0 -50 -31 -78.5t-77 -28.5q-49 0 -76.5 31t-29.5 78h69q1 -18 11.5 -29.5 t25.5 -11.5q18 0 28 11.5t10 27.5q0 17 -10.5 28t-27.5 11h-18v63h16q9 0 15 6.5t6 15.5t-6 15t-15 6q-15 0 -22 -14z" />
<glyph unicode="&#xbf;" horiz-adv-x="523" d="M234 390q0 32 22 54.5t54 22.5t54 -22.5t22 -54.5t-22 -54.5t-54 -22.5t-54 22.5t-22 54.5zM368 268h-115q0 -23 -4.5 -39.5t-18 -30t-22.5 -20.5t-34 -21t-36 -21q-47 -30 -71.5 -71.5t-24.5 -111.5q0 -93 62 -154t166 -61q98 0 166 64t68 166h-115q0 -55 -33.5 -88.5 t-84.5 -33.5q-53 0 -84 30t-31 80q0 44 20 69.5t71 53.5q56 31 88.5 73t32.5 116z" />
<glyph unicode="&#xc0;" horiz-adv-x="665" d="M655 0h-119l-43 118h-320l-43 -118h-120l265 717h115zM333 563l-122 -337h244zM465 888l-28 -100l-247 67l28 99z" />
<glyph unicode="&#xc1;" horiz-adv-x="665" d="M655 0h-119l-43 118h-320l-43 -118h-120l265 717h115zM333 563l-122 -337h244zM214 788l-28 100l247 66l28 -99z" />
<glyph unicode="&#xc2;" horiz-adv-x="665" d="M655 0h-119l-43 118h-320l-43 -118h-120l265 717h115zM333 563l-122 -337h244zM213 753l-68 68l188 188l187 -188l-67 -68l-120 119z" />
<glyph unicode="&#xc3;" horiz-adv-x="665" d="M655 0h-119l-43 118h-320l-43 -118h-120l265 717h115zM333 563l-122 -337h244zM427 897h102q-8 -54 -42 -84t-90 -30q-32 0 -69.5 18t-51.5 18q-29 0 -37 -26h-103q8 54 42 83.5t90 29.5q32 0 69.5 -18t51.5 -18q30 0 38 27z" />
<glyph unicode="&#xc4;" horiz-adv-x="665" d="M655 0h-119l-43 118h-320l-43 -118h-120l265 717h115zM333 563l-122 -337h244zM139 865q0 32 22 54.5t54 22.5t54 -22.5t22 -54.5t-22 -54.5t-54 -22.5t-54 22.5t-22 54.5zM376 865q0 32 22 54.5t54 22.5q31 0 53 -22.5t22 -54.5t-22 -54.5t-53 -22.5q-32 0 -54 22.5 t-22 54.5z" />
<glyph unicode="&#xc5;" horiz-adv-x="665" d="M655 0h-119l-43 118h-320l-43 -118h-120l265 717h115zM333 563l-122 -337h244zM230 870q0 42 30 72.5t73 30.5t72.5 -30.5t29.5 -72.5t-29.5 -72t-72.5 -30t-73 30t-30 72zM304 870q0 -12 8.5 -20t20.5 -8t20 8t8 20t-8 20.5t-20 8.5t-20.5 -8.5t-8.5 -20.5z" />
<glyph unicode="&#xc6;" horiz-adv-x="841" d="M333 0v118h-160l-43 -118h-120l265 717h513v-109h-341v-192h169v-109h-169v-198h348v-109h-462zM333 563l-122 -337h122v337z" />
<glyph unicode="&#xc7;" horiz-adv-x="798" d="M270 -146h84q0 -14 9 -23t23 -9q13 0 22 9.5t9 22.5q0 37 -38 37h-77l62 105q-137 13 -227 116.5t-90 245.5q0 153 101.5 259t252.5 106q165 0 273 -131l-80 -80q-71 102 -193 102q-103 0 -170 -73.5t-67 -182.5t67 -182.5t170 -73.5q104 0 171 72.5t67 183.5h117 q0 -140 -88 -242.5t-222 -118.5l-21 -38q33 -7 55 -34t22 -71q0 -47 -34.5 -81.5t-81.5 -34.5t-81.5 34.5t-34.5 81.5z" />
<glyph unicode="&#xc8;" horiz-adv-x="594" d="M86 0v717h450v-109h-335v-192h163v-109h-163v-198h341v-109h-456zM461 888l-28 -100l-247 67l28 99z" />
<glyph unicode="&#xc9;" horiz-adv-x="594" d="M86 0v717h450v-109h-335v-192h163v-109h-163v-198h341v-109h-456zM217 788l-28 100l247 66l28 -99z" />
<glyph unicode="&#xca;" horiz-adv-x="594" d="M86 0v717h450v-109h-335v-192h163v-109h-163v-198h341v-109h-456zM188 763l-67 68l187 188l188 -188l-68 -68l-120 120z" />
<glyph unicode="&#xcb;" horiz-adv-x="594" d="M86 0v717h450v-109h-335v-192h163v-109h-163v-198h341v-109h-456zM120 865q0 32 22 54.5t54 22.5q31 0 53 -22.5t22 -54.5t-22 -54.5t-53 -22.5q-32 0 -54 22.5t-22 54.5zM356 865q0 32 22 54.5t54 22.5t54 -22.5t22 -54.5t-22 -54.5t-54 -22.5t-54 22.5t-22 54.5z" />
<glyph unicode="&#xcc;" horiz-adv-x="432" d="M382 717v-109h-109v-499h109v-109h-332v109h109v499h-109v109h332zM354 888l-27 -100l-247 67l28 99z" />
<glyph unicode="&#xcd;" horiz-adv-x="432" d="M382 608v109h-332v-109h109v-499h-109v-109h332v109h-109v499h109zM98 788l-27 100l246 66l28 -99z" />
<glyph unicode="&#xce;" horiz-adv-x="432" d="M382 608v109h-332v-109h109v-499h-109v-109h332v109h-109v499h109zM97 763l-67 68l187 188l187 -188l-67 -68l-120 120z" />
<glyph unicode="&#xcf;" horiz-adv-x="432" d="M382 608v109h-332v-109h109v-499h-109v-109h332v109h-109v499h109zM22 865q0 32 22 54.5t53 22.5q32 0 54 -22.5t22 -54.5t-22 -54.5t-54 -22.5q-31 0 -53 22.5t-22 54.5zM258 865q0 32 22 54.5t54 22.5t54 -22.5t22 -54.5t-22 -54.5t-54 -22.5t-54 22.5t-22 54.5z" />
<glyph unicode="&#xd0;" horiz-adv-x="750" d="M140 717h210q156 0 254.5 -97.5t98.5 -261.5q0 -163 -98.5 -260.5t-254.5 -97.5h-210v307h-117v109h117v301zM353 608h-98v-192h118v-109h-118v-198h98q101 0 167.5 66t66.5 183t-66.5 183.5t-167.5 66.5z" />
<glyph unicode="&#xd1;" horiz-adv-x="644" d="M86 0v717h127l230 -494v494h115v-717h-127l-230 494v-494h-115zM416 897h102q-8 -54 -42 -84t-90 -30q-32 0 -69.5 18t-51.5 18q-30 0 -38 -26h-102q8 54 42 83.5t90 29.5q32 0 69.5 -18t51.5 -18q30 0 38 27z" />
<glyph unicode="&#xd2;" horiz-adv-x="802" d="M756 358q0 -153 -102 -258.5t-253 -105.5t-252.5 105.5t-101.5 258.5t101.5 259t252.5 106t253 -106t102 -259zM639 358q0 108 -67.5 182t-170.5 74t-170 -73.5t-67 -182.5t67 -182.5t170 -73.5t170.5 74t67.5 182zM541 882l-28 -100l-247 67l28 99z" />
<glyph unicode="&#xd3;" horiz-adv-x="802" d="M756 358q0 153 -102 259t-253 106t-252.5 -106t-101.5 -259t101.5 -258.5t252.5 -105.5t253 105.5t102 258.5zM639 358q0 -108 -67.5 -182t-170.5 -74t-170 73.5t-67 182.5t67 182.5t170 73.5t170.5 -74t67.5 -182zM276 788l-27 100l247 66l27 -99z" />
<glyph unicode="&#xd4;" horiz-adv-x="802" d="M756 358q0 153 -102 259t-253 106t-252.5 -106t-101.5 -259t101.5 -258.5t252.5 -105.5t253 105.5t102 258.5zM639 358q0 -108 -67.5 -182t-170.5 -74t-170 73.5t-67 182.5t67 182.5t170 73.5t170.5 -74t67.5 -182zM282 758l-68 68l187 188l188 -188l-68 -68l-120 120z " />
<glyph unicode="&#xd5;" horiz-adv-x="802" d="M756 358q0 153 -102 259t-253 106t-252.5 -106t-101.5 -259t101.5 -258.5t252.5 -105.5t253 105.5t102 258.5zM639 358q0 -108 -67.5 -182t-170.5 -74t-170 73.5t-67 182.5t67 182.5t170 73.5t170.5 -74t67.5 -182zM496 897h102q-8 -54 -42 -84t-90 -30q-32 0 -69.5 18 t-51.5 18q-30 0 -38 -26h-102q8 54 42 83.5t90 29.5q32 0 69.5 -18t51.5 -18q30 0 38 27z" />
<glyph unicode="&#xd6;" horiz-adv-x="802" d="M756 358q0 153 -102 259t-253 106t-252.5 -106t-101.5 -259t101.5 -258.5t252.5 -105.5t253 105.5t102 258.5zM639 358q0 -108 -67.5 -182t-170.5 -74t-170 73.5t-67 182.5t67 182.5t170 73.5t170.5 -74t67.5 -182zM208 865q0 32 22 54.5t54 22.5q31 0 53 -22.5t22 -54.5 t-22 -54.5t-53 -22.5q-32 0 -54 22.5t-22 54.5zM444 865q0 32 22 54.5t54 22.5t54 -22.5t22 -54.5t-22 -54.5t-54 -22.5t-54 22.5t-22 54.5z" />
<glyph unicode="&#xd7;" horiz-adv-x="692" d="M59 502l73 71l214 -214l214 214l73 -71l-215 -215l215 -215l-73 -72l-214 214l-214 -214l-73 72l215 215z" />
<glyph unicode="&#xd8;" horiz-adv-x="802" d="M756 358q0 -153 -102 -258.5t-253 -105.5q-49 0 -94 12l-22 -52l-94 40l23 52q-77 49 -122 131.5t-45 180.5q0 153 101.5 259t252.5 106q50 0 95 -12l22 52l93 -40l-22 -52q77 -49 122 -132t45 -181zM401 614q-103 0 -170 -73.5t-67 -182.5q0 -134 94 -207l195 458 q-20 5 -52 5zM639 358q0 64 -25 118.5t-69 89.5l-195 -458q24 -6 51 -6q103 0 170.5 74t67.5 182z" />
<glyph unicode="&#xd9;" horiz-adv-x="600" d="M419 717h115v-487q0 -104 -66.5 -170t-167.5 -66t-167 66t-66 170v487h114v-493q0 -55 32.5 -88.5t86.5 -33.5t86.5 33.5t32.5 88.5v493zM443 888l-27 -100l-247 67l28 99z" />
<glyph unicode="&#xda;" horiz-adv-x="600" d="M419 717h115v-487q0 -104 -66.5 -170t-167.5 -66t-167 66t-66 170v487h114v-493q0 -55 32.5 -88.5t86.5 -33.5t86.5 33.5t32.5 88.5v493zM184 788l-27 100l246 66l28 -99z" />
<glyph unicode="&#xdb;" horiz-adv-x="600" d="M419 717h115v-487q0 -104 -66.5 -170t-167.5 -66t-167 66t-66 170v487h114v-493q0 -55 32.5 -88.5t86.5 -33.5t86.5 33.5t32.5 88.5v493zM180 763l-67 68l187 188l187 -188l-67 -68l-120 120z" />
<glyph unicode="&#xdc;" horiz-adv-x="600" d="M419 717h115v-487q0 -104 -66.5 -170t-167.5 -66t-167 66t-66 170v487h114v-493q0 -55 32.5 -88.5t86.5 -33.5t86.5 33.5t32.5 88.5v493zM106 865q0 32 22 54.5t54 22.5t54 -22.5t22 -54.5t-22 -54.5t-54 -22.5t-54 22.5t-22 54.5zM343 865q0 32 22 54.5t54 22.5 t54 -22.5t22 -54.5t-22 -54.5t-54 -22.5t-54 22.5t-22 54.5z" />
<glyph unicode="&#xdd;" horiz-adv-x="516" d="M5 717h121l132 -293l132 293h121l-196 -410v-307h-114v307zM144 788l-27 100l247 66l27 -99z" />
<glyph unicode="&#xde;" horiz-adv-x="586" d="M86 0v717h115v-131h124q104 0 167.5 -62t63.5 -166t-63.5 -165.5t-167.5 -61.5h-124v-131h-115zM201 477v-237h118q58 0 90 31t32 87t-32 87.5t-90 31.5h-118z" />
<glyph unicode="&#xdf;" horiz-adv-x="544" d="M79 -268v803q0 79 54.5 133.5t137.5 54.5q90 0 140.5 -51.5t50.5 -136.5q0 -73 -58 -126q44 -28 71.5 -75.5t27.5 -106.5q0 -108 -63.5 -167.5t-168.5 -59.5h-45v106h38q58 0 93 33.5t35 87.5t-35 87t-93 33h-38v107h45q35 0 57.5 21.5t22.5 59.5t-22.5 59.5t-57.5 21.5 q-34 0 -57 -22.5t-23 -58.5v-791z" />
<glyph unicode="&#xe0;" horiz-adv-x="638" d="M445 512h115v-512h-115v53q-18 -23 -58 -41t-88 -18q-110 0 -183.5 73.5t-73.5 188.5t73.5 188.5t183.5 73.5q48 0 88 -18t58 -41v53zM450 256q0 64 -42.5 109t-104.5 45q-63 0 -106.5 -45t-43.5 -109t43.5 -109t106.5 -45q62 0 104.5 45t42.5 109zM468 677l-28 -99 l-246 66l27 99z" />
<glyph unicode="&#xe1;" horiz-adv-x="638" d="M445 512h115v-512h-115v53q-18 -23 -58 -41t-88 -18q-110 0 -183.5 73.5t-73.5 188.5t73.5 188.5t183.5 73.5q48 0 88 -18t58 -41v53zM450 256q0 64 -42.5 109t-104.5 45q-63 0 -106.5 -45t-43.5 -109t43.5 -109t106.5 -45q62 0 104.5 45t42.5 109zM208 579l-28 99 l247 66l28 -99z" />
<glyph unicode="&#xe2;" horiz-adv-x="638" d="M445 512h115v-512h-115v53q-18 -23 -58 -41t-88 -18q-110 0 -183.5 73.5t-73.5 188.5t73.5 188.5t183.5 73.5q48 0 88 -18t58 -41v53zM450 256q0 64 -42.5 109t-104.5 45q-63 0 -106.5 -45t-43.5 -109t43.5 -109t106.5 -45q62 0 104.5 45t42.5 109zM222 548l-67 68 l187 188l187 -188l-67 -68l-120 120z" />
<glyph unicode="&#xe3;" horiz-adv-x="638" d="M445 512h115v-512h-115v53q-18 -23 -58 -41t-88 -18q-110 0 -183.5 73.5t-73.5 188.5t73.5 188.5t183.5 73.5q48 0 88 -18t58 -41v53zM450 256q0 64 -42.5 109t-104.5 45q-63 0 -106.5 -45t-43.5 -109t43.5 -109t106.5 -45q62 0 104.5 45t42.5 109zM411 692h102 q-8 -54 -42 -83.5t-90 -29.5q-32 0 -69.5 17.5t-51.5 17.5q-30 0 -38 -26h-102q8 54 42 83.5t90 29.5q32 0 69.5 -17.5t51.5 -17.5q30 0 38 26z" />
<glyph unicode="&#xe4;" horiz-adv-x="638" d="M445 512h115v-512h-115v53q-18 -23 -58 -41t-88 -18q-110 0 -183.5 73.5t-73.5 188.5t73.5 188.5t183.5 73.5q48 0 88 -18t58 -41v53zM450 256q0 64 -42.5 109t-104.5 45q-63 0 -106.5 -45t-43.5 -109t43.5 -109t106.5 -45q62 0 104.5 45t42.5 109zM130 667q0 32 22 54 t54 22t54 -22t22 -54t-22 -54.5t-54 -22.5t-54 22.5t-22 54.5zM367 667q0 32 21.5 54t53.5 22t54 -22t22 -54t-22 -54.5t-54 -22.5q-31 0 -53 22.5t-22 54.5z" />
<glyph unicode="&#xe5;" horiz-adv-x="638" d="M445 512h115v-512h-115v53q-18 -23 -58 -41t-88 -18q-110 0 -183.5 73.5t-73.5 188.5t73.5 188.5t183.5 73.5q48 0 88 -18t58 -41v53zM450 256q0 64 -42.5 109t-104.5 45q-63 0 -106.5 -45t-43.5 -109t43.5 -109t106.5 -45q62 0 104.5 45t42.5 109zM201 666q0 42 29.5 72 t72.5 30t73 -30t30 -72t-30 -72.5t-73 -30.5t-72.5 30.5t-29.5 72.5zM274 666q0 -12 8.5 -20.5t20.5 -8.5t20.5 8.5t8.5 20.5t-8.5 20t-20.5 8t-20.5 -8t-8.5 -20z" />
<glyph unicode="&#xe6;" horiz-adv-x="873" d="M41 170q0 79 52 129.5t129 50.5q55 0 90 -33v27q0 68 -68 68q-43 0 -69 -44l-73 72q24 36 62.5 57t84.5 21q99 0 145 -66q74 66 178 66q89 0 155.5 -49.5t93.5 -129.5l-346 -200q42 -39 97 -39q62 0 100 35t47 96h115q-10 -106 -84 -171.5t-178 -65.5q-84 0 -147 43v-37 h-113v32q-30 -38 -94 -38q-74 0 -125.5 49t-51.5 127zM425 256q0 -18 2 -26l244 141q-38 41 -99 41q-66 0 -106.5 -45.5t-40.5 -110.5zM154 173q0 -35 23.5 -56t58.5 -21t58 21t23 56t-23 56t-58 21t-58.5 -21t-23.5 -56z" />
<glyph unicode="&#xe7;" horiz-adv-x="605" d="M188 -146h84q0 -14 9 -23t23 -9q13 0 22 9.5t9 22.5q0 37 -38 37h-77l62 104q-105 8 -172.5 81t-67.5 180q0 113 74.5 187.5t187.5 74.5q112 0 188 -78l-83 -74q-43 46 -105 46q-66 0 -106.5 -43.5t-40.5 -112.5t40.5 -112.5t106.5 -43.5q65 0 107 43.5t42 112.5h112 q0 -95 -54.5 -165t-142.5 -90l-25 -42q33 -7 55 -34t22 -71q0 -47 -34.5 -81.5t-81.5 -34.5t-81.5 34.5t-34.5 81.5z" />
<glyph unicode="&#xe8;" horiz-adv-x="605" d="M559 217h-398q9 -50 49.5 -83.5t94.5 -33.5q83 0 116 50h134q-26 -70 -94.5 -113t-155.5 -43q-111 0 -187 76.5t-76 185.5t75.5 185.5t184.5 76.5t184.5 -76.5t75.5 -185.5q0 -21 -3 -39zM302 414q-48 0 -86 -28t-50 -69h272q-12 41 -50 69t-86 28zM440 677l-27 -99 l-247 66l28 99z" />
<glyph unicode="&#xe9;" horiz-adv-x="605" d="M559 217h-398q9 -50 49.5 -83.5t94.5 -33.5q83 0 116 50h134q-26 -70 -94.5 -113t-155.5 -43q-111 0 -187 76.5t-76 185.5t75.5 185.5t184.5 76.5t184.5 -76.5t75.5 -185.5q0 -21 -3 -39zM302 414q-48 0 -86 -28t-50 -69h272q-12 41 -50 69t-86 28zM173 578l-28 99 l247 66l28 -99z" />
<glyph unicode="&#xea;" horiz-adv-x="605" d="M559 217h-398q9 -50 49.5 -83.5t94.5 -33.5q83 0 116 50h134q-26 -70 -94.5 -113t-155.5 -43q-111 0 -187 76.5t-76 185.5t75.5 185.5t184.5 76.5t184.5 -76.5t75.5 -185.5q0 -21 -3 -39zM302 414q-48 0 -86 -28t-50 -69h272q-12 41 -50 69t-86 28zM183 548l-67 68 l187 188l187 -188l-67 -68l-120 120z" />
<glyph unicode="&#xeb;" horiz-adv-x="605" d="M559 217h-398q9 -50 49.5 -83.5t94.5 -33.5q83 0 116 50h134q-26 -70 -94.5 -113t-155.5 -43q-111 0 -187 76.5t-76 185.5t75.5 185.5t184.5 76.5t184.5 -76.5t75.5 -185.5q0 -21 -3 -39zM302 414q-48 0 -86 -28t-50 -69h272q-12 41 -50 69t-86 28zM111 667q0 32 21.5 54 t53.5 22t54 -22t22 -54t-22 -54.5t-54 -22.5q-31 0 -53 22.5t-22 54.5zM347 667q0 32 22 54t54 22t54 -22t22 -54t-22 -54.5t-54 -22.5t-54 22.5t-22 54.5z" />
<glyph unicode="&#xec;" horiz-adv-x="270" d="M79 0v512h112v-512h-112zM272 677l-27 -99l-247 66l28 99z" />
<glyph unicode="&#xed;" horiz-adv-x="270" d="M79 0v512h112v-512h-112zM26 575l-28 100l247 66l27 -99z" />
<glyph unicode="&#xee;" horiz-adv-x="270" d="M79 0v512h112v-512h-112zM15 548l-67 68l187 188l188 -188l-68 -68l-120 120z" />
<glyph unicode="&#xef;" horiz-adv-x="270" d="M79 0v512h112v-512h-112zM17 590l-75 77l75 76l76 -76zM253 590l-76 77l76 76l76 -76z" />
<glyph unicode="&#xf0;" d="M278 545l-47 85l43 23l-59 115h115q14 -27 34 -65l40 23l47 -85l-41 -23l105 -198q51 -102 51 -164q0 -113 -76 -187.5t-186 -74.5t-186 74.5t-76 187.5q0 109 75.5 185.5t182.5 76.5q22 0 48 -4l-29 53zM155 256q0 -69 41.5 -112.5t107.5 -43.5t108 43.5t42 112.5 t-42 112.5t-108 43.5t-107.5 -43.5t-41.5 -112.5z" />
<glyph unicode="&#xf1;" horiz-adv-x="598" d="M79 0v512h112v-58q50 64 141 64q95 0 145.5 -54.5t50.5 -156.5v-307h-112v283q0 129 -112 129q-54 0 -83.5 -35t-29.5 -94v-283h-112zM393 692h103q-8 -54 -42 -83.5t-90 -29.5q-32 0 -69.5 17.5t-51.5 17.5q-30 0 -38 -26h-103q8 54 42 83.5t90 29.5q32 0 69.5 -17.5 t51.5 -17.5q30 0 38 26z" />
<glyph unicode="&#xf2;" d="M42 256q0 113 74 187.5t188 74.5t188 -74.5t74 -187.5t-74 -187.5t-188 -74.5t-188 74.5t-74 187.5zM157 256q0 -67 41 -110.5t106 -43.5q66 0 107 43.5t41 110.5t-41 110.5t-107 43.5q-65 0 -106 -43.5t-41 -110.5zM451 677l-28 -99l-247 66l28 99z" />
<glyph unicode="&#xf3;" d="M42 256q0 113 74 187.5t188 74.5t188 -74.5t74 -187.5t-74 -187.5t-188 -74.5t-188 74.5t-74 187.5zM157 256q0 -67 41 -110.5t106 -43.5q66 0 107 43.5t41 110.5t-41 110.5t-107 43.5q-65 0 -106 -43.5t-41 -110.5zM179 578l-27 99l246 66l28 -99z" />
<glyph unicode="&#xf4;" d="M42 256q0 113 74 187.5t188 74.5t188 -74.5t74 -187.5t-74 -187.5t-188 -74.5t-188 74.5t-74 187.5zM157 256q0 -67 41 -110.5t106 -43.5q66 0 107 43.5t41 110.5t-41 110.5t-107 43.5q-65 0 -106 -43.5t-41 -110.5zM184 548l-67 68l187 188l188 -188l-68 -68l-120 120z " />
<glyph unicode="&#xf5;" d="M42 256q0 113 74 187.5t188 74.5t188 -74.5t74 -187.5t-74 -187.5t-188 -74.5t-188 74.5t-74 187.5zM157 256q0 -67 41 -110.5t106 -43.5q66 0 107 43.5t41 110.5t-41 110.5t-107 43.5q-65 0 -106 -43.5t-41 -110.5zM390 692h103q-8 -54 -42 -83.5t-91 -29.5 q-32 0 -69 17.5t-51 17.5q-30 0 -38 -26h-103q8 54 42 83.5t90 29.5q32 0 69.5 -17.5t51.5 -17.5q30 0 38 26z" />
<glyph unicode="&#xf6;" d="M42 256q0 113 74 187.5t188 74.5t188 -74.5t74 -187.5t-74 -187.5t-188 -74.5t-188 74.5t-74 187.5zM157 256q0 -67 41 -110.5t106 -43.5q66 0 107 43.5t41 110.5t-41 110.5t-107 43.5q-65 0 -106 -43.5t-41 -110.5zM111 667q0 32 21.5 54t53.5 22t54 -22t22 -54 t-22 -54.5t-54 -22.5q-31 0 -53 22.5t-22 54.5zM347 667q0 32 22 54t54 22t54 -22t22 -54t-22 -54.5t-54 -22.5t-54 22.5t-22 54.5z" />
<glyph unicode="&#xf7;" horiz-adv-x="586" d="M216 527q0 32 22.5 54.5t53.5 22.5t53.5 -22.5t22.5 -54.5q0 -31 -22 -53.5t-54 -22.5t-54 22.5t-22 53.5zM525 307v103h-467v-103h467zM216 189q0 32 22.5 54.5t53.5 22.5t53.5 -22.5t22.5 -54.5q0 -31 -22 -53.5t-54 -22.5t-54 22.5t-22 53.5z" />
<glyph unicode="&#xf8;" d="M42 256q0 113 74 187.5t188 74.5q26 0 54 -5l19 45l93 -40l-17 -42q53 -35 83 -92.5t30 -127.5q0 -113 -74 -187.5t-188 -74.5q-26 0 -54 5l-19 -45l-93 40l18 42q-53 35 -83.5 92.5t-30.5 127.5zM452 256q0 72 -44 114l-114 -268h10q66 0 107 43.5t41 110.5zM157 256 q0 -72 44 -114l113 268h-10q-65 0 -106 -43.5t-41 -110.5z" />
<glyph unicode="&#xf9;" horiz-adv-x="598" d="M519 512v-512h-112v58q-50 -64 -141 -64q-95 0 -145.5 54.5t-50.5 156.5v307h112v-283q0 -129 112 -129q54 0 83.5 35t29.5 94v283h112zM433 677l-27 -99l-247 66l27 99z" />
<glyph unicode="&#xfa;" horiz-adv-x="598" d="M519 512v-512h-112v58q-50 -64 -141 -64q-95 0 -145.5 54.5t-50.5 156.5v307h112v-283q0 -129 112 -129q54 0 83.5 35t29.5 94v283h112zM181 578l-27 99l246 66l28 -99z" />
<glyph unicode="&#xfb;" horiz-adv-x="598" d="M519 512v-512h-112v58q-50 -64 -141 -64q-95 0 -145.5 54.5t-50.5 156.5v307h112v-283q0 -129 112 -129q54 0 83.5 35t29.5 94v283h112zM173 553l-68 69l188 187l187 -187l-67 -69l-120 120z" />
<glyph unicode="&#xfc;" horiz-adv-x="598" d="M519 512v-512h-112v58q-50 -64 -141 -64q-95 0 -145.5 54.5t-50.5 156.5v307h112v-283q0 -129 112 -129q54 0 83.5 35t29.5 94v283h112zM98 667q0 32 22 54t54 22t54 -22t22 -54t-22 -54.5t-54 -22.5t-54 22.5t-22 54.5zM335 667q0 32 22 54t54 22t53.5 -22t21.5 -54 t-22 -54.5t-53 -22.5q-32 0 -54 22.5t-22 54.5z" />
<glyph unicode="&#xfd;" horiz-adv-x="500" d="M6 512h117l127 -298l127 298h117l-188 -422v-346l-112 -12v358zM136 579l-27 99l246 66l28 -99z" />
<glyph unicode="&#xfe;" horiz-adv-x="628" d="M194 -256l-115 -12v985l115 12v-270q22 26 61 42.5t85 16.5q110 0 183.5 -73.5t73.5 -188.5t-73.5 -188.5t-183.5 -73.5q-93 0 -146 59v-309zM189 256q0 -63 42.5 -108.5t104.5 -45.5q63 0 106.5 45.5t43.5 108.5t-43.5 108.5t-106.5 45.5q-62 0 -104.5 -45.5 t-42.5 -108.5z" />
<glyph unicode="&#xff;" horiz-adv-x="500" d="M6 512h117l127 -298l127 298h117l-188 -422v-346l-112 -12v358zM56 667q0 32 22 54t54 22t54 -22t22 -54t-22 -54.5t-54 -22.5t-54 22.5t-22 54.5zM293 667q0 32 22 54t54 22t53.5 -22t21.5 -54t-22 -54.5t-53 -22.5q-32 0 -54 22.5t-22 54.5z" />
<glyph unicode="&#x131;" horiz-adv-x="271" d="M79 512h112v-512h-112v512z" />
<glyph unicode="&#x141;" horiz-adv-x="591" d="M36 217l-36 102l121 43v355h115v-313l93 34l36 -102l-129 -47v-180h341v-109h-456v248z" />
<glyph unicode="&#x142;" horiz-adv-x="396" d="M136 717l113 12v-326l95 35l36 -102l-131 -48v-288h-113v248l-85 -31l-36 102l121 43v355z" />
<glyph unicode="&#x152;" horiz-adv-x="1149" d="M641 0v87q-99 -93 -240 -93q-151 0 -252.5 105.5t-101.5 258.5t101.5 259t252.5 106q139 0 240 -93v87h450v-109h-335v-192h163v-109h-163v-198h341v-109h-456zM639 358q0 108 -67.5 182t-170.5 74t-170 -73.5t-67 -182.5t67 -182.5t170 -73.5t170.5 74t67.5 182z" />
<glyph unicode="&#x153;" horiz-adv-x="1014" d="M42 256q0 113 74 187.5t188 74.5q128 0 205 -95q77 95 205 95q89 0 155.5 -49.5t93.5 -129.5l-347 -200q42 -39 98 -39q62 0 99.5 34.5t46.5 96.5h115q-10 -106 -83.5 -171.5t-177.5 -65.5q-127 0 -205 94q-76 -94 -205 -94q-114 0 -188 74.5t-74 187.5zM452 256 q0 67 -41 110.5t-107 43.5q-65 0 -106 -43.5t-41 -110.5t41 -110.5t106 -43.5q66 0 107 43.5t41 110.5zM566 256q0 -18 2 -26l244 141q-38 41 -98 41q-65 0 -106.5 -44.5t-41.5 -111.5z" />
<glyph unicode="&#x160;" horiz-adv-x="550" d="M193 539q0 -19 6.5 -33t24.5 -24.5t32 -16.5t47 -17t52 -18q147 -56 147 -203q0 -99 -67 -166t-164 -67q-98 0 -164 67t-66 163h115q0 -52 31 -87t84 -35q54 0 85 33.5t31 88.5q0 31 -9.5 52.5t-31 35t-40.5 21.5t-55.5 19t-57.5 19q-52 20 -82.5 62t-30.5 99 q0 83 54 137t134 54q115 0 170 -92l-77 -77q-12 29 -36.5 44.5t-53.5 15.5q-35 0 -56.5 -21t-21.5 -54zM392 1014l68 -69l-188 -187l-187 187l68 69l119 -120z" />
<glyph unicode="&#x161;" horiz-adv-x="431" d="M39 169h107q0 -31 20.5 -50t47.5 -19q30 0 48 17t18 47q0 14 -5 24.5t-9.5 17t-18 13t-19 8t-25.5 7t-24 6.5q-44 12 -75 46t-31 91q0 61 41 101t100 40q77 0 122 -65l-70 -69q-14 34 -45 34q-19 0 -30 -12.5t-11 -28.5t11 -26.5t24 -15t38.5 -11.5t39.5 -12 q99 -36 99 -146q0 -76 -50 -124t-128 -48q-77 0 -126 50.5t-49 124.5zM335 809l67 -69l-187 -187l-187 187l67 69l120 -120z" />
<glyph unicode="&#x178;" horiz-adv-x="516" d="M5 717h121l132 -293l132 293h121l-196 -410v-307h-114v307zM65 865q0 32 22 54.5t53 22.5q32 0 54 -22.5t22 -54.5t-22 -54.5t-54 -22.5q-31 0 -53 22.5t-22 54.5zM301 865q0 32 22 54.5t54 22.5t54 -22.5t22 -54.5t-22 -54.5t-54 -22.5t-54 22.5t-22 54.5z" />
<glyph unicode="&#x17d;" horiz-adv-x="637" d="M129 307v103h133l145 198h-331v109h472v-96l-153 -211h56v-103h-130l-144 -198h417v-109h-558v96l152 211h-59zM441 1014l68 -69l-187 -187l-188 187l68 69l120 -120z" />
<glyph unicode="&#x17e;" horiz-adv-x="549" d="M59 406v106h429v-96l-297 -310h316v-106h-466v96l297 310h-279zM398 809l68 -69l-187 -187l-188 187l68 69l120 -120z" />
<glyph unicode="&#x192;" horiz-adv-x="490" d="M152 414v121q0 83 53 135.5t138 52.5q115 0 171 -107l-78 -69q-34 69 -93 69q-36 0 -57.5 -23t-21.5 -58v-121h162v-107h-162v-395q0 -80 -45.5 -124t-120.5 -44h-46v106h46q22 0 38 18.5t16 47.5v391h-100v107h100z" />
<glyph unicode="&#x2c6;" horiz-adv-x="425" d="M93 548l-67 68l187 188l187 -188l-67 -68l-120 120z" />
<glyph unicode="&#x2c7;" horiz-adv-x="425" d="M333 804l67 -69l-187 -187l-187 187l67 69l120 -120z" />
<glyph unicode="&#x2d8;" horiz-adv-x="450" d="M225 563q-71 0 -124.5 48t-61.5 118h105q6 -31 26.5 -51t54.5 -20t54.5 20t26.5 51h106q-8 -70 -62 -118t-125 -48z" />
<glyph unicode="&#x2d9;" horiz-adv-x="270" d="M59 646q0 32 22 54.5t54 22.5t54 -22.5t22 -54.5t-22 -54.5t-54 -22.5t-54 22.5t-22 54.5z" />
<glyph unicode="&#x2da;" horiz-adv-x="307" d="M51 666q0 42 30 72t73 30t72.5 -30t29.5 -72t-29.5 -72.5t-72.5 -30.5t-73 30.5t-30 72.5zM125 666q0 -12 8.5 -20.5t20.5 -8.5t20 8.5t8 20.5t-8 20t-20 8t-20.5 -8t-8.5 -20z" />
<glyph unicode="&#x2db;" horiz-adv-x="266" d="M173 -146h84q0 -50 -34 -83t-82 -33q-51 0 -83 33t-32 81q0 23 9 45l43 103h90l-43 -102q-14 -34 -14 -44q0 -13 8 -22.5t22 -9.5t23 9.5t9 22.5z" />
<glyph unicode="&#x2dc;" horiz-adv-x="458" d="M333 692h102q-8 -54 -42 -83.5t-90 -29.5q-32 0 -69.5 17.5t-51.5 17.5q-30 0 -38 -26h-102q8 54 42 83.5t90 29.5q32 0 69.5 -17.5t51.5 -17.5q30 0 38 26z" />
<glyph unicode="&#x2dd;" horiz-adv-x="566" d="M106 558l-64 82l202 156l64 -82zM339 558l-65 82l202 156l65 -82z" />
<glyph unicode="&#x3c0;" horiz-adv-x="628" d="M349 161v245h-71v-406h-113v406h-107v106h508v-106h-104v-250q0 -25 15 -40.5t40 -15.5v-106q-168 0 -168 167z" />
<glyph unicode="&#x2000;" horiz-adv-x="509" />
<glyph unicode="&#x2001;" horiz-adv-x="1019" />
<glyph unicode="&#x2002;" horiz-adv-x="509" />
<glyph unicode="&#x2003;" horiz-adv-x="1019" />
<glyph unicode="&#x2004;" horiz-adv-x="339" />
<glyph unicode="&#x2005;" horiz-adv-x="254" />
<glyph unicode="&#x2006;" horiz-adv-x="169" />
<glyph unicode="&#x2007;" horiz-adv-x="169" />
<glyph unicode="&#x2008;" horiz-adv-x="127" />
<glyph unicode="&#x2009;" horiz-adv-x="203" />
<glyph unicode="&#x200a;" horiz-adv-x="56" />
<glyph unicode="&#x2010;" horiz-adv-x="471" d="M58 287v102h352v-102h-352z" />
<glyph unicode="&#x2011;" horiz-adv-x="471" d="M58 287v102h352v-102h-352z" />
<glyph unicode="&#x2012;" horiz-adv-x="471" d="M58 287v102h352v-102h-352z" />
<glyph unicode="&#x2013;" horiz-adv-x="591" d="M58 287v102h472v-102h-472z" />
<glyph unicode="&#x2014;" horiz-adv-x="828" d="M58 287v102h709v-102h-709z" />
<glyph unicode="&#x2018;" horiz-adv-x="290" d="M268 499l-94 -55l-158 273h123z" />
<glyph unicode="&#x2019;" horiz-adv-x="290" d="M117 444l-94 55l129 218h122z" />
<glyph unicode="&#x201a;" horiz-adv-x="290" d="M180 272l94 -54l-129 -218h-122z" />
<glyph unicode="&#x201c;" horiz-adv-x="468" d="M268 499l-94 -55l-158 273h123zM446 499l-94 -55l-157 273h122z" />
<glyph unicode="&#x201d;" horiz-adv-x="468" d="M295 444l-94 55l129 218h123zM117 444l-94 55l129 218h122z" />
<glyph unicode="&#x201e;" horiz-adv-x="468" d="M180 272l94 -54l-129 -218h-122zM358 272l95 -54l-129 -218h-123z" />
<glyph unicode="&#x2020;" horiz-adv-x="540" d="M213 512v205l115 12v-217h162v-109h-162v-659l-115 -12v671h-163v109h163z" />
<glyph unicode="&#x2021;" horiz-adv-x="540" d="M50 199v108h163v96h-163v109h163v205l115 12v-217h162v-109h-162v-96h162v-108h-162v-455l-115 -12v467h-163z" />
<glyph unicode="&#x2022;" horiz-adv-x="253" d="M51 358q0 32 22 54.5t54 22.5t54 -22.5t22 -54.5t-22 -54t-54 -22t-54 22t-22 54z" />
<glyph unicode="&#x2026;" horiz-adv-x="729" d="M74 71q0 32 22 54t54 22t53.5 -22t21.5 -54t-22 -54.5t-53 -22.5q-32 0 -54 22.5t-22 54.5zM289 71q0 32 22 54t54 22t53.5 -22t21.5 -54t-22 -54.5t-53 -22.5q-32 0 -54 22.5t-22 54.5zM504 71q0 32 22 54t54 22t53.5 -22t21.5 -54t-22 -54.5t-53 -22.5q-32 0 -54 22.5 t-22 54.5z" />
<glyph unicode="&#x202f;" horiz-adv-x="203" />
<glyph unicode="&#x2030;" horiz-adv-x="1386" d="M254 -62l374 881l93 -40l-374 -881zM49 538q0 80 52 132.5t133 52.5t133.5 -52.5t52.5 -132.5t-52.5 -133t-133.5 -53t-133 53t-52 133zM152 538q0 -38 23 -61.5t59 -23.5t59.5 23.5t23.5 61.5t-23.5 61.5t-59.5 23.5t-59 -23.5t-23 -61.5zM555 179q0 80 52 133t133 53 t133.5 -53t52.5 -133t-52.5 -132.5t-133.5 -52.5t-133 52.5t-52 132.5zM657 179q0 -38 23.5 -61.5t59.5 -23.5t59.5 23.5t23.5 61.5t-23.5 61.5t-59.5 23.5t-59.5 -23.5t-23.5 -61.5zM967 179q0 80 52 133t133 53t133 -53t52 -133t-52 -132.5t-133 -52.5t-133 52.5 t-52 132.5zM1069 179q0 -38 23.5 -61.5t59.5 -23.5t59.5 23.5t23.5 61.5t-23.5 61.5t-59.5 23.5t-59.5 -23.5t-23.5 -61.5z" />
<glyph unicode="&#x2039;" horiz-adv-x="399" d="M368 123l-73 -72l-255 256l255 256l73 -71l-185 -185z" />
<glyph unicode="&#x203a;" horiz-adv-x="399" d="M32 492l72 71l255 -256l-255 -256l-72 72l184 184z" />
<glyph unicode="&#x2044;" horiz-adv-x="792" d="M32 43l680 680l49 -49l-680 -680z" />
<glyph unicode="&#x205f;" horiz-adv-x="254" />
<glyph unicode="&#x20ac;" horiz-adv-x="852" d="M26 205v102h93q0 1 -3 41h-90v103h101q31 120 122.5 196t220.5 76q170 0 272 -131l-80 -80q-75 102 -192 102q-80 0 -138 -45t-85 -118h235v-103h-250q0 -15 4 -41h246v-102h-203q67 -103 191 -103q90 0 154 55t81 150h114q-17 -138 -115.5 -225.5t-233.5 -87.5 q-114 0 -196.5 57t-125.5 154h-122z" />
<glyph unicode="&#x2122;" horiz-adv-x="712" d="M22 648v69h217v-69h-74v-238h-70v238h-73zM275 410v307h81l101 -212l100 212h81v-307h-70v179l-85 -179h-53l-85 179v-179h-70z" />
<glyph unicode="&#x2126;" horiz-adv-x="802" d="M756 109v-109h-299v106q80 21 132 91.5t52 160.5q0 111 -67.5 183.5t-172.5 72.5t-172 -72.5t-67 -183.5q0 -90 52 -160.5t132 -91.5v-106h-299v109h113q-113 113 -113 249q0 157 98.5 261t255.5 104t256 -104t99 -261q0 -136 -113 -249h113z" />
<glyph unicode="&#x2202;" d="M42 256q0 109 75.5 185.5t182.5 76.5q23 0 47 -4l-132 254h115q158 -296 185 -348q51 -102 51 -164q0 -113 -76 -187.5t-186 -74.5t-186 74.5t-76 187.5zM155 256q0 -69 41.5 -112.5t107.5 -43.5t108 43.5t42 112.5t-42 112.5t-108 43.5t-107.5 -43.5t-41.5 -112.5z" />
<glyph unicode="&#x2206;" horiz-adv-x="835" d="M8 0l410 729l409 -729h-819zM641 109l-223 398l-223 -398h446z" />
<glyph unicode="&#x220f;" horiz-adv-x="637" d="M86 717h466v-717h-115v608h-236v-608h-115v717z" />
<glyph unicode="&#x2211;" horiz-adv-x="671" d="M50 598v119h568v-109h-409l290 -250l-290 -249h409v-109h-568v119l285 239z" />
<glyph unicode="&#x2212;" horiz-adv-x="471" d="M58 287v102h352v-102h-352z" />
<glyph unicode="&#x221a;" horiz-adv-x="671" d="M32 307l1 103h184l96 -258l240 667h111l-303 -819h-98l-115 307h-116z" />
<glyph unicode="&#x221e;" horiz-adv-x="530" d="M51 358q0 55 36.5 91.5t89.5 36.5q60 0 88 -40q28 40 88 40q53 0 89.5 -36.5t36.5 -91.5t-36.5 -91.5t-89.5 -36.5q-60 0 -88 40q-28 -40 -88 -40q-53 0 -89.5 36.5t-36.5 91.5zM135 358q0 -19 12.5 -31.5t31.5 -12.5t31 12.5t12 31.5t-12 31.5t-31 12.5t-31.5 -12.5 t-12.5 -31.5zM308 358q0 -19 12 -31.5t31 -12.5t31.5 12.5t12.5 31.5t-12.5 31.5t-31.5 12.5t-31 -12.5t-12 -31.5z" />
<glyph unicode="&#x222b;" horiz-adv-x="553" d="M557 608h-53q-54 0 -76 -52l-299 -706q-45 -106 -155 -106h-47v109h43q47 0 65 42l298 698q54 124 168 124h56v-109z" />
<glyph unicode="&#x2248;" horiz-adv-x="568" d="M412 313h105q0 -54 -33 -84t-90 -30q-24 0 -108.5 14t-100.5 14q-28 0 -28 -22h-106q0 54 33 84t90 30q24 0 108.5 -14t100.5 -14q29 0 29 22zM412 471h105q0 -54 -33 -84.5t-90 -30.5q-24 0 -108.5 14.5t-100.5 14.5q-12 0 -20 -6.5t-8 -16.5h-106q0 54 33 84.5t90 30.5 q24 0 108.5 -14t100.5 -14q29 0 29 22z" />
<glyph unicode="&#x2260;" horiz-adv-x="585" d="M58 369v102h235l60 142l93 -40l-43 -102h121v-102h-165l-25 -62h190v-102h-234l-61 -143l-93 40l43 103h-121v102h165l26 62h-191z" />
<glyph unicode="&#x2264;" horiz-adv-x="585" d="M416 197l-73 -72l-231 232l231 233l73 -72l-162 -161zM58 0v102h466v-102h-466z" />
<glyph unicode="&#x2265;" horiz-adv-x="585" d="M243 125l-73 72l162 160l-162 161l73 72l231 -233zM527 102v-102h-466v102h466z" />
<glyph unicode="&#x25ca;" horiz-adv-x="583" d="M59 358l233 365l232 -365l-232 -364zM403 358l-111 176l-112 -176l112 -175z" />
<glyph unicode="&#x25fc;" horiz-adv-x="512" d="M0 512h512v-512h-512v512z" />
<glyph unicode="&#xf8ff;" horiz-adv-x="778" d="M692 632v-609q0 -9 -6.5 -16t-15.5 -7q-3 0 -7 1l-274 79l-273 -79q-4 -1 -7 -1q-9 0 -16 7t-7 16v609q0 17 16 22l277 80q6 2 10 2t10 -2l277 -80q16 -5 16 -22zM367 375v310l-236 -69q6 -96 73.5 -164.5t162.5 -76.5zM412 685v-310q95 8 162 76.5t73 164.5zM130 474 v-422l237 69v209q-74 6 -137 44.5t-100 99.5zM648 52v422q-38 -61 -100 -99.5t-136 -44.5v-209z" />
<glyph unicode="&#xfb01;" horiz-adv-x="689" d="M139 512v78q0 66 40 99.5t99 33.5q72 0 110 -47l-76 -75q-9 15 -29 15q-14 0 -22.5 -9t-8.5 -24v-71h136v-106h-136v-406h-113v406h-103v106h103zM498 0v512h112v-512h-112zM478 646q0 32 22 54.5t54 22.5t54 -22.5t22 -54.5t-22 -54.5t-54 -22.5t-54 22.5t-22 54.5z" />
<glyph unicode="&#xfb02;" horiz-adv-x="629" d="M139 512v78q0 66 40 99.5t99 33.5q72 0 110 -47l-76 -75q-9 15 -29 15q-14 0 -22.5 -9t-8.5 -24v-71h136v-106h-136v-406h-113v406h-103v106h103zM438 0v717l113 12v-729h-113z" />
<glyph horiz-adv-x="495" d="M42 170q0 79 52 129.5t129 50.5q55 0 90 -33v27q0 68 -68 68q-43 0 -69 -44l-73 72q24 36 62.5 57t84.5 21q85 0 130.5 -47t45.5 -132v-339h-113v32q-30 -38 -94 -38q-74 0 -125.5 49t-51.5 127zM155 173q0 -35 23.5 -56t58.5 -21t58 21t23 56t-23 56t-58 21t-58.5 -21 t-23.5 -56z" />
<glyph horiz-adv-x="495" d="M42 170q0 79 52 129.5t129 50.5q55 0 90 -33v27q0 68 -68 68q-43 0 -69 -44l-73 72q24 36 62.5 57t84.5 21q85 0 130.5 -47t45.5 -132v-339h-113v32q-30 -38 -94 -38q-74 0 -125.5 49t-51.5 127zM155 173q0 -35 23.5 -56t58.5 -21t58 21t23 56t-23 56t-58 21t-58.5 -21 t-23.5 -56zM397 677l-27 -99l-247 66l28 99z" />
<glyph horiz-adv-x="495" d="M141 578l-27 99l246 66l28 -99zM42 170q0 79 52 129.5t129 50.5q55 0 90 -33v27q0 68 -68 68q-43 0 -69 -44l-73 72q24 36 62.5 57t84.5 21q85 0 130.5 -47t45.5 -132v-339h-113v32q-30 -38 -94 -38q-74 0 -125.5 49t-51.5 127zM155 173q0 -35 23.5 -56t58.5 -21t58 21 t23 56t-23 56t-58 21t-58.5 -21t-23.5 -56z" />
<glyph horiz-adv-x="495" d="M42 170q0 79 52 129.5t129 50.5q55 0 90 -33v27q0 68 -68 68q-43 0 -69 -44l-73 72q24 36 62.5 57t84.5 21q85 0 130.5 -47t45.5 -132v-339h-113v32q-30 -38 -94 -38q-74 0 -125.5 49t-51.5 127zM155 173q0 -35 23.5 -56t58.5 -21t58 21t23 56t-23 56t-58 21t-58.5 -21 t-23.5 -56zM126 548l-68 68l188 188l187 -188l-67 -68l-120 120z" />
<glyph horiz-adv-x="495" d="M42 170q0 79 52 129.5t129 50.5q55 0 90 -33v27q0 68 -68 68q-43 0 -69 -44l-73 72q24 36 62.5 57t84.5 21q85 0 130.5 -47t45.5 -132v-339h-113v32q-30 -38 -94 -38q-74 0 -125.5 49t-51.5 127zM155 173q0 -35 23.5 -56t58.5 -21t58 21t23 56t-23 56t-58 21t-58.5 -21 t-23.5 -56zM334 692h102q-8 -54 -42 -83.5t-90 -29.5q-32 0 -69.5 17.5t-51.5 17.5q-30 0 -38 -26h-102q8 54 42 83.5t90 29.5q32 0 69.5 -17.5t51.5 -17.5q30 0 38 26z" />
<glyph horiz-adv-x="495" d="M58 667q0 32 22 54t54 22t54 -22t22 -54t-22 -54.5t-54 -22.5t-54 22.5t-22 54.5zM295 667q0 32 22 54t54 22t53.5 -22t21.5 -54t-22 -54.5t-53 -22.5q-32 0 -54 22.5t-22 54.5zM42 170q0 79 52 129.5t129 50.5q55 0 90 -33v27q0 68 -68 68q-43 0 -69 -44l-73 72 q24 36 62.5 57t84.5 21q85 0 130.5 -47t45.5 -132v-339h-113v32q-30 -38 -94 -38q-74 0 -125.5 49t-51.5 127zM155 173q0 -35 23.5 -56t58.5 -21t58 21t23 56t-23 56t-58 21t-58.5 -21t-23.5 -56z" />
<glyph horiz-adv-x="495" d="M145 666q0 42 30 72t73 30t72.5 -30t29.5 -72t-29.5 -72.5t-72.5 -30.5t-73 30.5t-30 72.5zM219 666q0 -12 8.5 -20.5t20.5 -8.5t20 8.5t8 20.5t-8 20t-20 8t-20.5 -8t-8.5 -20zM42 170q0 79 52 129.5t129 50.5q55 0 90 -33v27q0 68 -68 68q-43 0 -69 -44l-73 72 q24 36 62.5 57t84.5 21q85 0 130.5 -47t45.5 -132v-339h-113v32q-30 -38 -94 -38q-74 0 -125.5 49t-51.5 127zM155 173q0 -35 23.5 -56t58.5 -21t58 21t23 56t-23 56t-58 21t-58.5 -21t-23.5 -56z" />
<glyph horiz-adv-x="548" d="M57 310q0 88 58 148t148 60q63 0 105 -30v24h112v-202q0 -93 -68 -149q46 -32 71.5 -81t25.5 -106q0 -105 -68.5 -170.5t-171.5 -65.5q-98 0 -167.5 66t-69.5 170q0 123 94 187q-69 60 -69 149zM269 103q-52 0 -86.5 -36t-34.5 -93t34.5 -93.5t86.5 -36.5q57 0 91 36 t34 94t-34 93.5t-91 35.5zM170 310q0 -45 28 -72.5t71 -27.5t71 28t28 72q0 45 -28 73.5t-71 28.5t-71 -28.5t-28 -73.5z" />
<glyph d="M42 256q0 110 74.5 186t187.5 76q89 0 155.5 -49.5t93.5 -129.5l-346 -200q42 -39 97 -39q62 0 100 35t47 96h114q-10 -106 -83.5 -171.5t-177.5 -65.5q-113 0 -187.5 76t-74.5 186zM157 256q0 -18 2 -26l243 141q-38 41 -98 41q-66 0 -106.5 -45.5t-40.5 -110.5z" />
<glyph d="M42 256q0 110 74.5 186t187.5 76q89 0 155.5 -49.5t93.5 -129.5l-346 -200q42 -39 97 -39q62 0 100 35t47 96h114q-10 -106 -83.5 -171.5t-177.5 -65.5q-113 0 -187.5 76t-74.5 186zM157 256q0 -18 2 -26l243 141q-38 41 -98 41q-66 0 -106.5 -45.5t-40.5 -110.5z M436 677l-27 -99l-247 66l27 99z" />
<glyph d="M42 256q0 110 74.5 186t187.5 76q89 0 155.5 -49.5t93.5 -129.5l-346 -200q42 -39 97 -39q62 0 100 35t47 96h114q-10 -106 -83.5 -171.5t-177.5 -65.5q-113 0 -187.5 76t-74.5 186zM157 256q0 -18 2 -26l243 141q-38 41 -98 41q-66 0 -106.5 -45.5t-40.5 -110.5z M174 578l-28 99l247 66l28 -99z" />
<glyph d="M42 256q0 110 74.5 186t187.5 76q89 0 155.5 -49.5t93.5 -129.5l-346 -200q42 -39 97 -39q62 0 100 35t47 96h114q-10 -106 -83.5 -171.5t-177.5 -65.5q-113 0 -187.5 76t-74.5 186zM157 256q0 -18 2 -26l243 141q-38 41 -98 41q-66 0 -106.5 -45.5t-40.5 -110.5z M183 548l-67 68l187 188l187 -188l-67 -68l-120 120z" />
<glyph d="M42 256q0 110 74.5 186t187.5 76q89 0 155.5 -49.5t93.5 -129.5l-346 -200q42 -39 97 -39q62 0 100 35t47 96h114q-10 -106 -83.5 -171.5t-177.5 -65.5q-113 0 -187.5 76t-74.5 186zM157 256q0 -18 2 -26l243 141q-38 41 -98 41q-66 0 -106.5 -45.5t-40.5 -110.5z M112 667q0 32 21.5 54t53.5 22t54 -22t22 -54t-22 -54.5t-54 -22.5q-31 0 -53 22.5t-22 54.5zM348 667q0 32 22 54t54 22t54 -22t22 -54t-22 -54.5t-54 -22.5t-54 22.5t-22 54.5z" />
<glyph horiz-adv-x="485" d="M463 339q0 -61 -31.5 -106t-85.5 -62l132 -171h-142l-145 186v-186h-112v717l112 12v-241q36 30 96 30q80 0 128 -50.5t48 -128.5zM351 339q0 33 -23.5 54t-57.5 21t-57.5 -21t-23.5 -54t23.5 -54t57.5 -21t57.5 21t23.5 54z" />
</font>
</defs>
</svg>
